<svg width="30" height="30" viewBox="0 0 30 30" fill="none" xmlns="http://www.w3.org/2000/svg">
<path fill-rule="evenodd" clip-rule="evenodd" d="M14.9121 0.000719517C15.8086 -0.00514086 16.2715 0.024161 16.8926 0.112067C17.332 0.176531 17.9238 0.282018 18.2109 0.346482C18.4922 0.405086 18.9434 0.522293 19.2188 0.604339C19.4941 0.680523 19.957 0.832893 20.2441 0.93838C20.5312 1.04387 21.1934 1.34275 21.709 1.6006C22.2246 1.86432 22.9102 2.25111 23.2324 2.46794C23.5547 2.68477 24.0938 3.08328 24.4336 3.35286C24.7734 3.62243 25.3652 4.17331 25.752 4.57182C26.1387 4.97032 26.6836 5.60324 26.959 5.97245C27.2344 6.34165 27.5859 6.84564 27.7383 7.08592C27.8906 7.32619 28.207 7.90637 28.4414 8.3752C28.6758 8.84403 28.9746 9.54142 29.1152 9.9282C29.25 10.315 29.4375 10.9362 29.5312 11.3054C29.625 11.6746 29.7305 12.1376 29.7598 12.331C29.7949 12.5243 29.8652 12.9697 29.9121 13.3272C29.9648 13.6964 30 14.3938 30 14.9681C30 15.5249 29.959 16.275 29.9121 16.6676C29.8594 17.0544 29.7656 17.6346 29.7012 17.9569C29.6367 18.2792 29.502 18.8184 29.4082 19.1583C29.3086 19.4982 29.1094 20.0784 28.9688 20.4476C28.8223 20.8168 28.5234 21.4673 28.3066 21.8834C28.0898 22.2995 27.7441 22.8972 27.5449 23.202C27.3398 23.5067 27 23.9814 26.7832 24.2568C26.5723 24.5323 26.0918 25.0656 25.7227 25.4523C25.3535 25.8333 24.7734 26.3666 24.4336 26.642C24.0938 26.9116 23.5547 27.3101 23.2324 27.5269C22.9102 27.7438 22.2246 28.1305 21.709 28.3884C21.1934 28.6521 20.4551 28.9803 20.0684 29.1151C19.6816 29.2499 19.0605 29.4374 18.6914 29.5312C18.3223 29.6249 17.8594 29.7246 17.666 29.7597C17.4727 29.7949 17.0391 29.8594 16.6992 29.9121C16.3184 29.9648 15.668 30 15 30C14.2031 30 13.6934 29.9648 13.0664 29.8769C12.5977 29.8066 11.8242 29.6542 11.3379 29.5312C10.8574 29.4081 10.1953 29.2147 9.87305 29.0975C9.55078 28.9744 8.89453 28.6873 8.4082 28.447C7.92773 28.2126 7.33008 27.8903 7.08984 27.7379C6.84961 27.5855 6.3457 27.2339 5.97656 26.9585C5.57812 26.6654 4.93945 26.097 4.41797 25.5813C3.90234 25.0597 3.33398 24.4209 3.04102 24.0224C2.76562 23.6532 2.41406 23.1492 2.26172 22.9089C2.10938 22.6687 1.77539 22.0475 1.52344 21.5318C1.26562 21.016 0.943359 20.2366 0.796875 19.8029C0.650391 19.3693 0.462891 18.7246 0.386719 18.3671C0.304688 18.0097 0.1875 17.3474 0.123047 16.8903C0.0351562 16.3043 0 15.7476 0 15.0443C0 14.47 0.0410156 13.7257 0.0878906 13.3272C0.140625 12.9404 0.246094 12.2958 0.328125 11.8914C0.410156 11.4871 0.609375 10.7662 0.767578 10.2798C0.931641 9.79927 1.25391 9.00812 1.48828 8.52171C1.72266 8.04116 2.05078 7.41996 2.22656 7.14452C2.39648 6.86908 2.75977 6.34165 3.04102 5.97245C3.31641 5.60324 3.84961 4.9879 4.21875 4.60112C4.58789 4.22019 5.15625 3.6869 5.47852 3.42318C5.80078 3.15946 6.36914 2.73752 6.73828 2.49138C7.10742 2.24524 7.74023 1.87018 8.14453 1.66507C8.54883 1.45995 9.14648 1.18452 9.48047 1.05559C9.80859 0.920799 10.377 0.727407 10.7402 0.616059C11.0977 0.510572 11.6836 0.364063 12.041 0.293738C12.3984 0.223414 12.9258 0.135508 13.2129 0.0886252C13.5 0.0476025 14.2676 0.0065799 14.9121 0.000719517ZM12.6914 3.03054C12.4688 3.21221 12.1465 3.53453 11.9707 3.7455C11.7949 3.95648 11.4844 4.37842 11.2793 4.68316C11.0742 4.9879 10.7344 5.59738 10.5293 6.03105C10.3242 6.46472 10.1074 6.93355 10.0547 7.0742L9.96094 7.32033H14.0625C14.0625 3.37044 14.0508 2.2218 14.0391 2.2218C14.0215 2.2218 13.8047 2.32729 13.5527 2.46208C13.3008 2.59101 12.9141 2.84886 12.6914 3.03054ZM15.9375 7.32033H20.0391C19.8926 6.93355 19.6699 6.453 19.4531 6.00175C19.2363 5.5505 18.8965 4.94102 18.7031 4.65386C18.5098 4.36084 18.2051 3.95648 18.0293 3.7455C17.8594 3.53453 17.5078 3.19463 17.25 2.98951C16.998 2.7844 16.6582 2.54998 16.4941 2.46794C16.3359 2.39175 16.1426 2.30385 16.0664 2.27455L15.9316 2.2218L15.9375 7.32033ZM8.36133 3.69276C8.00977 3.89787 7.44141 4.2788 7.10156 4.53665C6.75586 4.79451 6.2168 5.25748 5.90039 5.56222C5.57812 5.87282 5.10352 6.38267 4.8457 6.70499L4.37695 7.29103C7.11914 7.32033 7.93945 7.30275 7.96289 7.27931C7.99219 7.25587 8.10352 6.99801 8.20312 6.70499C8.30859 6.41783 8.51367 5.91384 8.6543 5.59152C8.80078 5.2692 9.04688 4.77107 9.21094 4.47805C9.375 4.19089 9.63867 3.75722 9.80273 3.51109C9.96094 3.27081 10.1426 3.01295 10.207 2.94263C10.2656 2.87231 10.2891 2.80198 10.2656 2.7844C10.2363 2.77268 9.9375 2.88403 9.60352 3.0364C9.26953 3.18877 8.70703 3.48178 8.36133 3.69276ZM19.7344 2.88989C19.7578 2.90161 19.9043 3.095 20.0625 3.31769C20.2207 3.53453 20.502 3.97992 20.6895 4.30224C20.877 4.62456 21.1289 5.11683 21.2578 5.38641C21.3867 5.66185 21.6035 6.18928 21.7383 6.55848C21.8789 6.93355 22.0078 7.25587 22.0254 7.27931C22.0488 7.30275 22.8633 7.31447 23.8477 7.30861L25.6289 7.29103C24.8965 6.38267 24.4219 5.87282 24.1055 5.56222C23.7891 5.25748 23.3145 4.84725 23.0566 4.648C22.7988 4.45461 22.3652 4.14987 22.0898 3.9682C21.8203 3.79238 21.3984 3.54039 21.1523 3.4056C20.9121 3.27667 20.4961 3.07742 20.2324 2.96607C19.9629 2.84886 19.7344 2.7844 19.7168 2.8137C19.6992 2.843 19.7109 2.87817 19.7344 2.88989ZM3.07031 9.53556C2.98828 9.72309 2.83008 10.1099 2.71875 10.397C2.60742 10.6901 2.4375 11.2175 2.34375 11.5691C2.25 11.9266 2.12109 12.5243 2.05078 12.9053C1.98633 13.2862 1.93359 13.6964 1.93359 13.8254V14.0598H6.85547C6.86133 13.4972 6.89648 12.9463 6.94336 12.4775C6.99023 12.0145 7.06641 11.3406 7.11914 10.9831C7.17188 10.6314 7.26562 10.104 7.33008 9.81099C7.39453 9.52384 7.44141 9.26598 7.44141 9.24254C7.44141 9.2191 6.49219 9.19565 5.33203 9.19565H3.22266L3.07031 9.53556ZM9.26367 9.71137C9.19922 9.99853 9.09375 10.5435 9.0293 10.9303C8.96484 11.3171 8.88867 11.868 8.85352 12.161C8.81836 12.4482 8.77148 12.999 8.74805 13.38L8.70117 14.0656H14.0625V9.20152H9.38086L9.26367 9.71137ZM15.9375 14.0598H21.2695C21.2695 13.5851 21.2461 13.1455 21.2109 12.7705C21.1758 12.4013 21.0879 11.6922 21.0059 11.1882C20.9297 10.6901 20.8125 10.0395 20.748 9.74067L20.625 9.19565H15.9375V14.0598ZM22.7109 10.0044C22.793 10.4146 22.9102 11.1706 22.9746 11.6863C23.0332 12.202 23.1094 12.9522 23.1328 13.3448L23.1738 14.0656L28.0664 14.0598C28.0664 13.6964 28.0137 13.2862 27.9492 12.9053C27.8848 12.5243 27.7559 11.9266 27.6621 11.5691C27.5684 11.2175 27.3984 10.6901 27.2871 10.397C27.1758 10.1099 27.0176 9.72309 26.9297 9.53556L26.7773 9.19565C23.5078 9.19565 22.5586 9.21323 22.5586 9.22496C22.5586 9.24254 22.6289 9.59416 22.7109 10.0044ZM1.93359 16.1695C1.93359 16.2984 1.98633 16.7145 2.05664 17.0954C2.12109 17.4764 2.25 18.0741 2.34375 18.4258C2.4375 18.7832 2.60742 19.3107 2.71875 19.5978C2.83008 19.8908 2.98828 20.2776 3.07031 20.4652L3.22266 20.7992C6.49219 20.7992 7.44141 20.7875 7.44141 20.7699C7.44141 20.7582 7.37695 20.4066 7.29492 19.9963C7.21289 19.5861 7.0957 18.8243 7.03125 18.3085C6.9668 17.7928 6.89648 17.0486 6.87305 16.6559L6.82617 15.9351H1.93359V16.1695ZM8.75391 16.6266C8.77734 17.0075 8.81836 17.5526 8.85352 17.8397C8.88867 18.1327 8.96484 18.6836 9.0293 19.0704C9.09375 19.4572 9.19922 20.0081 9.26367 20.2894L9.375 20.7992H14.0625V15.9351H8.71289L8.75391 16.6266ZM15.9434 20.8051H20.6309C20.8125 19.967 20.918 19.4044 20.9824 19.0176C21.0469 18.6309 21.1348 17.9335 21.1816 17.4646C21.2344 16.9958 21.2695 16.4625 21.2695 16.275L21.2754 15.9409H15.9434V20.8051ZM23.127 16.6559C23.1035 17.0544 23.0391 17.7987 22.9746 18.3144C22.9102 18.8301 22.793 19.5861 22.7109 19.9963C22.6289 20.4124 22.5645 20.7582 22.5645 20.7758C22.5645 20.7933 23.5137 20.8051 24.6738 20.8051H26.7832C27.0176 20.2835 27.1758 19.8908 27.2871 19.6037C27.3984 19.3107 27.5684 18.7832 27.6621 18.4316C27.7559 18.0741 27.8848 17.4764 27.9492 17.0954C28.0137 16.7204 28.0723 16.3043 28.0723 16.1754V15.9409H23.1621L23.127 16.6559ZM4.86328 23.3074C5.11523 23.6239 5.56055 24.1045 5.8418 24.3799C6.12891 24.6612 6.57422 25.0538 6.83203 25.2531C7.08984 25.4582 7.48242 25.7512 7.71094 25.9036C7.93359 26.056 8.38477 26.3255 8.70703 26.5072C9.0293 26.683 9.50977 26.9233 9.77344 27.0405C10.0547 27.1636 10.2715 27.2222 10.2891 27.187C10.3066 27.1577 10.3008 27.1226 10.2715 27.1108C10.248 27.0991 10.1016 26.9057 9.94336 26.683C9.78516 26.4662 9.49805 26.0032 9.30469 25.6633C9.11133 25.3293 8.85938 24.8546 8.74805 24.6085C8.63672 24.3682 8.41992 23.8407 8.26758 23.4364L7.99219 22.7038C5.20898 22.6804 4.40039 22.6921 4.40039 22.7038C4.40039 22.7214 4.61133 22.991 4.86328 23.3074ZM10.0605 22.9265C10.1133 23.0613 10.3359 23.5419 10.5527 23.9931C10.7695 24.4444 11.0801 25.0128 11.2383 25.2531C11.3965 25.4992 11.6953 25.9036 11.9062 26.1615C12.1113 26.4134 12.4512 26.7651 12.6621 26.9409C12.873 27.1108 13.2012 27.3452 13.3945 27.4507C13.5879 27.5621 13.8164 27.6793 13.9043 27.7145L14.0684 27.7731V22.6745H9.9668L10.0605 22.9265ZM15.9434 27.7789C16.1484 27.7027 16.3359 27.609 16.5 27.5328C16.6582 27.4507 16.9922 27.228 17.2324 27.0288C17.4727 26.8354 17.8242 26.4955 18.0117 26.2787C18.1992 26.056 18.5156 25.634 18.709 25.3469C18.9023 25.0538 19.2422 24.4502 19.459 23.999C19.6758 23.5477 19.8984 23.0672 19.9512 22.9265L20.0449 22.6804H15.9434V27.7789ZM21.9727 22.8386C21.9375 22.9324 21.8203 23.2371 21.7148 23.5301C21.6035 23.8173 21.4043 24.292 21.2754 24.585C21.1406 24.8722 20.877 25.3762 20.6895 25.6985C20.5078 26.0208 20.2266 26.4662 20.0684 26.6889C19.9102 26.9116 19.7637 27.0991 19.7344 27.1108C19.7109 27.1226 19.7051 27.1577 19.7227 27.1929C19.7402 27.228 19.9512 27.1636 20.2324 27.0405C20.502 26.9292 20.9824 26.6889 21.3047 26.5072C21.627 26.3255 22.0723 26.056 22.3008 25.9036C22.5234 25.7512 22.9219 25.4582 23.1797 25.259C23.4375 25.0538 23.8828 24.6612 24.1641 24.3858C24.4512 24.1103 24.8965 23.6239 25.1484 23.3074C25.4004 22.9968 25.6113 22.7273 25.6113 22.7097C25.6113 22.6921 24.8086 22.6804 23.8242 22.6804H22.0371L21.9727 22.8386Z" fill="white"/>
</svg>
