<svg width="30" height="29" viewBox="0 0 30 29" fill="none" xmlns="http://www.w3.org/2000/svg">
<path d="M29.9588 10.8246C29.8603 10.5229 29.6017 10.3074 29.2877 10.2581L19.9285 8.92816L15.7169 0.461801C15.5753 0.178563 15.2859 0 14.9718 0C14.6578 0 14.3684 0.178563 14.2268 0.467959L10.0706 8.95895L0.711416 10.3505C0.397391 10.3998 0.138783 10.6153 0.0402651 10.917C-0.0582525 11.2187 0.0279504 11.5512 0.255772 11.7667L7.04733 18.3489L5.47721 27.6711C5.42179 27.9852 5.5511 28.2992 5.8097 28.4839C5.95132 28.5886 6.12373 28.644 6.29613 28.644C6.4316 28.644 6.5609 28.6132 6.68405 28.5455L15.0396 24.1183L23.4197 28.4962C23.5429 28.5578 23.6722 28.5886 23.8015 28.5886C24.2571 28.5886 24.6327 28.213 24.6327 27.7573C24.6327 27.6896 24.6266 27.628 24.6081 27.5665L22.9887 18.2997L29.7372 11.6805C29.9773 11.4588 30.0574 11.1263 29.9588 10.8246ZM21.5233 17.4191C21.3262 17.61 21.24 17.8871 21.2893 18.158L22.6993 26.2426L15.4213 22.4435C15.1812 22.3142 14.8918 22.3204 14.6455 22.4435L7.39214 26.2857L8.75292 18.1888C8.79602 17.9179 8.70982 17.647 8.51278 17.4561L2.62635 11.7421L10.7479 10.5352C11.0188 10.4921 11.2528 10.3259 11.3698 10.0796L14.978 2.70923L18.6355 10.0611C18.7586 10.3074 18.9926 10.4737 19.2635 10.5168L27.3912 11.6743L21.5233 17.4191Z" fill="white"/>
</svg>
