<svg width="42" height="48" viewBox="0 0 42 48" fill="none" xmlns="http://www.w3.org/2000/svg">
<path fill-rule="evenodd" clip-rule="evenodd" d="M16.1891 0C16.4972 0 16.8338 0.00535428 16.9372 0.0142781C17.0405 0.0232019 17.1812 0.0392647 17.2489 0.0481885C17.3165 0.0571123 17.4145 0.0731751 17.4626 0.0820989C17.5125 0.0910227 17.6122 0.10887 17.6852 0.121364C17.7583 0.133857 17.8331 0.14992 17.8509 0.158844C17.8669 0.167767 17.9097 0.174906 17.9435 0.174906C17.9774 0.174906 18.0094 0.182045 18.0148 0.192754C18.0201 0.203463 18.0522 0.210602 18.086 0.210602C18.1198 0.210602 18.1626 0.217741 18.1786 0.226664C18.1964 0.237373 18.2588 0.257005 18.3176 0.273068C18.3763 0.289131 18.4387 0.310548 18.4547 0.319472C18.4725 0.328396 18.4992 0.335535 18.5135 0.335535C18.5277 0.335535 18.5545 0.342674 18.5705 0.351598C18.5883 0.360521 18.6667 0.390862 18.745 0.415849C18.8234 0.440836 18.9071 0.471177 18.9321 0.481885C18.957 0.492594 18.9908 0.506872 19.0069 0.515796C19.0247 0.524719 19.0585 0.531858 19.0835 0.531858C19.1084 0.531858 19.1316 0.538997 19.1369 0.549706C19.1422 0.560414 19.1725 0.580047 19.2028 0.594325C19.2349 0.610388 19.274 0.622881 19.2883 0.622881C19.3025 0.622881 19.3382 0.638944 19.3684 0.656792C19.3987 0.676424 19.4504 0.703195 19.4842 0.719258C19.5181 0.737106 19.5768 0.763877 19.6125 0.783509C19.6499 0.801357 19.6926 0.81742 19.7069 0.81742C19.7211 0.81742 19.7336 0.824559 19.7336 0.835267C19.7336 0.845976 19.7461 0.853115 19.7603 0.853115C19.7746 0.853115 19.8137 0.872747 19.844 0.895949C19.8761 0.919151 19.9349 0.956631 19.974 0.978048C20.0132 1.00125 20.0738 1.03338 20.1076 1.05122C20.1415 1.06729 20.1824 1.09584 20.1967 1.11191C20.2109 1.12797 20.2377 1.14046 20.2537 1.13868C20.2715 1.13868 20.2858 1.14403 20.2858 1.15295C20.2858 1.16009 20.316 1.1833 20.3517 1.2065C20.3891 1.22791 20.455 1.27432 20.4995 1.30823C20.544 1.34214 20.5992 1.37962 20.6242 1.39033C20.6491 1.40104 20.7186 1.44922 20.7791 1.49741C20.8415 1.5456 20.8949 1.58487 20.9003 1.58487C20.9056 1.58487 20.9911 1.6634 21.0908 1.75977C21.1888 1.85437 21.3883 2.0489 21.5308 2.19168C21.6733 2.33447 21.871 2.53614 21.969 2.64144C22.0669 2.74496 22.1578 2.84848 22.1684 2.86811C22.1809 2.88953 22.2379 2.96449 22.2949 3.03588C22.3519 3.10548 22.4036 3.17687 22.4089 3.19115C22.4142 3.20543 22.4463 3.25362 22.4784 3.29645C22.5122 3.33929 22.5532 3.3964 22.5692 3.42138C22.587 3.44637 22.6244 3.51419 22.6547 3.5713C22.6832 3.62663 22.717 3.6766 22.726 3.68196C22.7349 3.68731 22.7598 3.72658 22.7794 3.7712C22.799 3.81582 22.8204 3.85508 22.8275 3.85865C22.8364 3.86222 22.8542 3.89791 22.8684 3.93896C22.8827 3.98001 22.9005 4.01214 22.9076 4.01214C22.9165 4.01214 22.9219 4.02463 22.9219 4.03891C22.9219 4.05319 22.9415 4.09781 22.9664 4.13707C22.9913 4.17634 23.0109 4.21382 23.0109 4.22274C23.0109 4.22988 23.0359 4.28878 23.0679 4.35303C23.1 4.41728 23.1356 4.48153 23.1463 4.49581C23.1588 4.51009 23.1802 4.55649 23.1944 4.60111C23.2087 4.64573 23.2318 4.70641 23.2443 4.73497C23.2567 4.76352 23.3137 4.92415 23.3725 5.09192C23.4295 5.25969 23.4812 5.42567 23.4847 5.46315C23.4883 5.49884 23.5008 5.53275 23.5097 5.53811C23.5186 5.54346 23.5275 5.5631 23.5275 5.58273C23.5275 5.60236 23.5346 5.6327 23.5435 5.65055C23.5542 5.66661 23.572 5.74157 23.588 5.81475C23.6023 5.88792 23.6308 6.04855 23.6522 6.1717C23.6718 6.29485 23.6985 6.43049 23.7092 6.47511C23.7198 6.51973 23.7359 6.64823 23.7466 6.76067C23.7572 6.87311 23.7644 7.24255 23.7644 7.58166C23.7662 7.92076 23.7572 8.28128 23.7466 8.3848C23.7341 8.48832 23.7181 8.60076 23.7074 8.63467C23.6967 8.66858 23.6878 8.73104 23.6878 8.77388C23.6878 8.81493 23.6807 8.86312 23.6718 8.88096C23.6628 8.89703 23.6522 8.94878 23.6486 8.99519C23.6468 9.03981 23.6379 9.08443 23.629 9.09335C23.6219 9.10049 23.6165 9.12369 23.6165 9.14332C23.6165 9.16296 23.5969 9.27183 23.5702 9.38427C23.5453 9.49671 23.5168 9.60558 23.5097 9.62521C23.5025 9.64484 23.4883 9.68589 23.4776 9.71445C23.4687 9.743 23.4455 9.81975 23.4277 9.884C23.4117 9.94825 23.3903 10.0089 23.385 10.0179C23.3779 10.0268 23.3529 10.0875 23.3316 10.1517C23.3102 10.216 23.2799 10.2963 23.2656 10.3302C23.2514 10.3641 23.2318 10.4069 23.2229 10.4248C23.214 10.4408 23.2069 10.4676 23.2069 10.4819C23.2069 10.4962 23.1908 10.539 23.173 10.5765C23.1534 10.6122 23.1249 10.6711 23.1107 10.705C23.0947 10.7389 23.0804 10.7764 23.0804 10.7853C23.0804 10.7942 23.0679 10.8121 23.0501 10.8246C23.0323 10.8371 22.9824 10.8406 22.9219 10.8353C22.8684 10.8299 22.815 10.8192 22.8061 10.8103C22.7972 10.8032 22.7527 10.7907 22.7099 10.7817C22.6672 10.7746 22.6298 10.7621 22.6262 10.755C22.6226 10.746 22.6031 10.7407 22.5835 10.7407C22.5639 10.7407 22.5336 10.7335 22.5158 10.7246C22.4997 10.7157 22.4338 10.6925 22.3697 10.6693C22.3056 10.6479 22.213 10.6193 22.1649 10.6033C22.115 10.589 22.0616 10.5693 22.0438 10.5604C22.0277 10.5515 22.001 10.5444 21.9868 10.5444C21.9725 10.5444 21.9173 10.5247 21.8656 10.5015C21.8158 10.4765 21.7356 10.4408 21.6875 10.4212C21.6412 10.3998 21.5931 10.3837 21.5807 10.3837C21.57 10.3855 21.5468 10.373 21.5326 10.357C21.5183 10.3409 21.4934 10.3284 21.4791 10.3302C21.4649 10.3302 21.4435 10.323 21.4346 10.3141C21.4257 10.3052 21.3687 10.282 21.3099 10.2642C21.2511 10.2445 21.1674 10.2177 21.1229 10.2053C21.0784 10.1928 21.0267 10.1767 21.0071 10.1696C20.9875 10.1606 20.9555 10.1499 20.9359 10.1428C20.9163 10.1356 20.8397 10.116 20.7667 10.0964C20.6936 10.0768 20.5868 10.0553 20.5298 10.0482C20.4728 10.0411 20.4229 10.0411 20.4176 10.05C20.414 10.0571 20.4389 10.1053 20.4763 10.1571C20.512 10.207 20.5743 10.2891 20.6135 10.3373C20.6545 10.3855 20.8272 10.5658 21 10.7389C21.171 10.912 21.3634 11.0976 21.4275 11.153C21.4898 11.2083 21.5611 11.2636 21.5842 11.2779C21.6074 11.2922 21.6626 11.3368 21.7089 11.3796C21.7534 11.4207 21.7997 11.4546 21.8087 11.4546C21.8176 11.4546 21.8425 11.4707 21.8621 11.4921C21.8817 11.5135 21.9298 11.551 21.9672 11.5777C22.0064 11.6027 22.058 11.6384 22.083 11.6545C22.1079 11.6723 22.1684 11.7062 22.2183 11.7312C22.2664 11.7562 22.3341 11.8008 22.3644 11.8294C22.4053 11.8669 22.4196 11.8919 22.4107 11.9151C22.4053 11.9311 22.3804 11.9704 22.3573 11.9989C22.3359 12.0275 22.3198 12.0561 22.3252 12.0614C22.3305 12.0668 22.3056 12.0989 22.2718 12.1328C22.2361 12.1667 22.2094 12.2006 22.2094 12.2095C22.2094 12.2167 22.1809 12.2506 22.1471 12.2845C22.1132 12.3184 22.0847 12.3577 22.0847 12.3702C22.0847 12.3809 22.0206 12.4558 21.9422 12.5344C21.8639 12.6129 21.7997 12.6861 21.7997 12.695C21.7997 12.7039 21.6893 12.8235 21.5539 12.9591C21.4204 13.093 21.301 13.2037 21.2921 13.2037C21.2832 13.2037 21.2173 13.259 21.1496 13.3286C21.0819 13.3982 21.016 13.4535 21.0071 13.4535C20.9982 13.4535 20.959 13.4803 20.9198 13.5124C20.8824 13.5428 20.8219 13.5945 20.7863 13.6231C20.7506 13.6534 20.6865 13.7016 20.6438 13.7302C20.601 13.7605 20.5529 13.7926 20.5351 13.8015C20.5191 13.8105 20.4835 13.8355 20.455 13.8551C20.4282 13.8747 20.3855 13.9068 20.3588 13.9283C20.3338 13.9479 20.3 13.9711 20.2858 13.9765C20.2715 13.9836 20.2359 14.005 20.2056 14.0246C20.1753 14.0443 20.1005 14.0853 20.0364 14.1192C19.9723 14.1514 19.8832 14.2031 19.8351 14.2352C19.7888 14.2674 19.7461 14.2924 19.7389 14.2924C19.73 14.2906 19.7122 14.3031 19.698 14.3191C19.6837 14.3352 19.657 14.3477 19.641 14.3459C19.6232 14.3459 19.6089 14.3548 19.6089 14.3637C19.6089 14.3727 19.5964 14.3816 19.5822 14.3816C19.5679 14.3816 19.527 14.3977 19.4931 14.4173C19.4593 14.4369 19.4201 14.453 19.4094 14.453C19.3969 14.453 19.3293 14.4798 19.2616 14.5154C19.1939 14.5494 19.1262 14.5779 19.1155 14.5779C19.1031 14.5779 19.055 14.5975 19.0086 14.6225C18.9606 14.6475 18.9089 14.6672 18.8929 14.6672C18.8751 14.6672 18.8573 14.6761 18.8519 14.685C18.8466 14.6939 18.827 14.7028 18.8074 14.7028C18.7878 14.7028 18.7379 14.7171 18.6969 14.735C18.6542 14.7546 18.5812 14.7814 18.5313 14.7974C18.4832 14.8135 18.4137 14.8314 18.3799 14.8367C18.3461 14.8438 18.2944 14.8599 18.2641 14.8724C18.2338 14.8849 18.1911 14.8992 18.1662 14.9045C18.1412 14.9099 18.0735 14.9277 18.0148 14.9438C17.956 14.9599 17.8758 14.9813 17.8366 14.9902C17.7975 15.0009 17.7173 15.0152 17.6585 15.0241C17.5997 15.033 17.4875 15.0473 17.4092 15.0562C17.3308 15.0652 17.2542 15.0794 17.2399 15.0866C17.2257 15.0955 17.1366 15.1098 17.044 15.1205C16.9514 15.1294 16.5898 15.1383 16.2425 15.1383C15.8952 15.1383 15.5176 15.1294 15.4053 15.1187C15.2931 15.108 15.1791 15.0901 15.1524 15.0794C15.1239 15.0687 15.058 15.0598 15.0046 15.0598C14.9511 15.0598 14.9031 15.0509 14.8977 15.042C14.8924 15.033 14.8443 15.0241 14.7908 15.0241C14.7374 15.0241 14.6786 15.017 14.6626 15.008C14.6448 14.9991 14.5824 14.9813 14.5237 14.9706C14.4649 14.9581 14.3527 14.9295 14.2743 14.9081C14.1959 14.8849 14.0356 14.8367 13.9181 14.801C13.8005 14.7653 13.6901 14.7278 13.674 14.7189C13.6562 14.71 13.6295 14.7028 13.6153 14.7028C13.601 14.7028 13.5458 14.6832 13.4959 14.66C13.4443 14.635 13.3552 14.5958 13.3 14.5708C13.243 14.5458 13.1931 14.5244 13.1878 14.5244C13.1824 14.5244 13.1094 14.4922 13.0221 14.453C12.9366 14.4119 12.8387 14.3655 12.8048 14.3459C12.771 14.328 12.6944 14.287 12.6356 14.2567C12.5768 14.2263 12.4967 14.1817 12.4575 14.1585C12.4183 14.1335 12.3382 14.0907 12.2794 14.0621C12.2206 14.0336 12.1547 13.9943 12.1316 13.9729C12.1102 13.9533 12.0888 13.9354 12.0835 13.9354C12.0781 13.9354 12.0247 13.8997 11.9641 13.8551C11.9018 13.8123 11.843 13.7766 11.8341 13.7748C11.8252 13.7748 11.786 13.7462 11.7504 13.7123C11.713 13.6784 11.6774 13.6498 11.6702 13.6498C11.6613 13.6498 11.6275 13.6213 11.5936 13.5874C11.5598 13.5535 11.5224 13.5249 11.5135 13.5249C11.5046 13.5249 11.4583 13.4946 11.412 13.4535C11.3567 13.4071 11.3087 13.3821 11.2784 13.3821C11.2374 13.3821 11.1573 13.3107 10.8331 12.9859C10.5142 12.6629 10.4377 12.5754 10.427 12.5254C10.4198 12.4915 10.3824 12.4255 10.345 12.3791C10.3076 12.3309 10.2756 12.2899 10.2756 12.2845C10.2756 12.2791 10.2471 12.2452 10.2132 12.2095C10.1794 12.1721 10.1509 12.1364 10.1509 12.1292C10.1509 12.1203 10.1277 12.0882 10.0975 12.0578C10.069 12.0257 10.044 11.9936 10.044 11.9864C10.044 11.9775 10.0084 11.924 9.96387 11.8651C9.91934 11.8062 9.88372 11.7544 9.88372 11.7491C9.88372 11.7437 9.84987 11.6902 9.80712 11.6295C9.76438 11.567 9.71628 11.4885 9.70025 11.4546C9.68244 11.4207 9.6486 11.36 9.62366 11.3207C9.60051 11.2815 9.57557 11.2368 9.56845 11.2226C9.56132 11.2083 9.54707 11.1904 9.53282 11.1833C9.52036 11.1744 9.50967 11.153 9.50967 11.1333C9.50967 11.1137 9.50076 11.0976 9.49186 11.0976C9.48295 11.0976 9.47405 11.0851 9.47405 11.0709C9.47405 11.0566 9.46692 11.0298 9.45802 11.0138C9.44911 10.9959 9.42061 10.9352 9.39567 10.8799C9.37074 10.8228 9.34046 10.7728 9.33155 10.7675C9.32265 10.7621 9.31374 10.7443 9.31374 10.7282C9.31374 10.7103 9.29237 10.6532 9.26565 10.5997C9.23715 10.5461 9.21043 10.5015 9.20331 10.498C9.1944 10.4944 9.18906 10.4658 9.18906 10.4373C9.18906 10.4087 9.18015 10.3802 9.17125 10.3748C9.16234 10.3695 9.15344 10.3498 9.15344 10.3302C9.15344 10.3106 9.14453 10.2945 9.13562 10.2945C9.12672 10.2945 9.11781 10.2802 9.11781 10.2642C9.11781 10.2463 9.08931 10.1481 9.05369 10.0446C9.01985 9.94111 8.98422 9.84116 8.9771 9.82153C8.96819 9.8019 8.94682 9.73765 8.93079 9.67875C8.91476 9.61985 8.88626 9.52705 8.86667 9.4735C8.84886 9.41996 8.83282 9.34143 8.83282 9.30038C8.83282 9.25755 8.82392 9.22007 8.81501 9.21471C8.80611 9.20936 8.7972 9.17009 8.7972 9.12548C8.7972 9.08086 8.78829 9.04159 8.77939 9.03624C8.77048 9.03088 8.75801 8.98448 8.75267 8.93451C8.74733 8.88275 8.73486 8.79173 8.72595 8.73283C8.71705 8.67393 8.70102 8.55435 8.69033 8.46511C8.67964 8.37588 8.66361 8.14029 8.65471 7.93861C8.6458 7.72801 8.6458 7.42103 8.65471 7.21578C8.66361 7.01946 8.67964 6.77495 8.69033 6.67143C8.70102 6.56791 8.72595 6.40015 8.74555 6.29663C8.76692 6.19312 8.79008 6.06461 8.80076 6.01107C8.80967 5.95753 8.82036 5.87721 8.8257 5.83259C8.83104 5.78798 8.84351 5.74514 8.85242 5.73443C8.86132 5.72551 8.86845 5.68981 8.86845 5.65947C8.86845 5.62735 8.87379 5.59701 8.8827 5.59344C8.88982 5.58987 8.9112 5.5274 8.92901 5.45601C8.9486 5.38283 8.96997 5.31144 8.9771 5.29717C8.98422 5.28289 9.01272 5.199 9.04122 5.10977C9.06794 5.02231 9.09644 4.94735 9.10534 4.94557C9.11247 4.942 9.11781 4.92415 9.11781 4.90452C9.11781 4.88489 9.12672 4.86525 9.13562 4.8599C9.14453 4.85455 9.15344 4.83134 9.15344 4.80636C9.15344 4.78137 9.16947 4.7314 9.18728 4.6957C9.20687 4.65822 9.24249 4.57969 9.26921 4.5208C9.29593 4.4619 9.32443 4.40122 9.33155 4.38694C9.34046 4.37266 9.36896 4.3209 9.39389 4.27093C9.41883 4.22274 9.43842 4.17098 9.43842 4.16027C9.43842 4.14778 9.44733 4.13707 9.45623 4.13707C9.46514 4.13707 9.47405 4.12279 9.47583 4.10673C9.47583 4.08888 9.49186 4.04962 9.50967 4.02106C9.52748 3.99251 9.56489 3.9229 9.5916 3.86936C9.6201 3.81582 9.65929 3.74621 9.67888 3.71765C9.70025 3.6891 9.73053 3.63556 9.74478 3.60164C9.76081 3.56773 9.78575 3.52668 9.80178 3.51241C9.81781 3.49813 9.83206 3.4785 9.83028 3.46779C9.83028 3.45886 9.84987 3.42852 9.87481 3.40175C9.89975 3.3732 9.91934 3.34642 9.91934 3.33929C9.91756 3.33036 9.93181 3.31251 9.94784 3.29824C9.96387 3.28396 9.99415 3.24112 10.0155 3.20186C10.0351 3.16438 10.0636 3.11619 10.0743 3.09477C10.0868 3.07514 10.1206 3.03231 10.1509 3.00375C10.1794 2.97519 10.2043 2.94307 10.2043 2.93236C10.2043 2.92344 10.2399 2.87882 10.2845 2.8342C10.329 2.78958 10.3646 2.74675 10.3646 2.73604C10.3646 2.72711 10.4092 2.67179 10.4626 2.61646C10.516 2.55935 10.5606 2.50759 10.5606 2.50045C10.5588 2.49152 10.6888 2.35588 10.8455 2.19704C11.0041 2.03641 11.1377 1.90612 11.1448 1.90612C11.1519 1.90612 11.2071 1.86329 11.2695 1.80796C11.33 1.75442 11.3852 1.7098 11.3941 1.7098C11.4013 1.7098 11.4458 1.67053 11.4921 1.62056C11.5402 1.57237 11.5883 1.53132 11.599 1.53132C11.6115 1.53132 11.6435 1.50812 11.672 1.48135C11.6987 1.45458 11.7361 1.42602 11.7539 1.41531C11.77 1.40639 11.8163 1.37962 11.8537 1.35999C11.8929 1.33857 11.9338 1.30823 11.9481 1.29217C11.9623 1.2761 11.9802 1.26361 11.9891 1.26361C11.9962 1.26361 12.0247 1.24398 12.0532 1.21899C12.0799 1.194 12.1066 1.17259 12.1155 1.17437C12.1226 1.17437 12.1636 1.15117 12.2081 1.12083C12.2527 1.09227 12.2919 1.06729 12.2972 1.06729C12.3025 1.06729 12.3328 1.04944 12.3631 1.02802C12.3952 1.00482 12.4539 0.969124 12.4931 0.947707C12.5323 0.928075 12.6089 0.88881 12.6623 0.862039C12.7158 0.835267 12.7924 0.797787 12.8316 0.778155C12.8707 0.758523 12.9384 0.724612 12.983 0.703195C13.0275 0.679993 13.1112 0.638944 13.17 0.612173C13.2288 0.585401 13.3071 0.547921 13.3445 0.530074C13.3802 0.510441 13.4247 0.496163 13.4425 0.496163C13.4621 0.496163 13.5066 0.4801 13.5458 0.462253C13.5832 0.44262 13.715 0.394432 13.8379 0.355167C13.9608 0.315902 14.1015 0.271283 14.1496 0.255221C14.1995 0.239158 14.2618 0.22131 14.2921 0.215956C14.3224 0.212386 14.3616 0.201678 14.3812 0.192754C14.4008 0.18383 14.4489 0.173122 14.488 0.167767C14.5272 0.162413 14.6038 0.151705 14.6573 0.140996C14.7107 0.132072 14.8122 0.110655 14.8799 0.0945923C14.9476 0.0785294 15.0723 0.0571123 15.156 0.0481885C15.2397 0.03748 15.3786 0.0232019 15.4677 0.0160628C15.5567 0.0089238 15.8809 0.00178476 16.1891 0V0ZM20.1041 5.37748C20.0168 5.39176 19.8565 5.43281 19.7461 5.4685C19.6374 5.5042 19.4468 5.57737 19.3239 5.63092C19.201 5.68446 19.0621 5.7505 19.0158 5.77548C18.9481 5.81296 18.9321 5.83081 18.9392 5.85937C18.9445 5.879 18.9499 5.91648 18.9499 5.94503V5.99322C19.0532 5.94146 19.1672 5.89149 19.2705 5.85044C19.3738 5.80939 19.5377 5.7505 19.6356 5.72194C19.7336 5.69338 19.917 5.65233 20.0453 5.62913C20.1735 5.60593 20.3445 5.58094 20.4282 5.57559C20.512 5.56845 20.6598 5.57202 20.7578 5.58094C20.8557 5.58987 21.016 5.61485 21.114 5.63627C21.212 5.6559 21.3598 5.69338 21.4435 5.72015C21.5272 5.74693 21.6929 5.81832 21.8122 5.88078L22.0313 5.99322C22.0135 5.84866 21.9992 5.79511 21.9885 5.78262C21.9779 5.76834 21.8728 5.71123 21.7552 5.65412C21.6377 5.59701 21.4702 5.52205 21.3812 5.48814C21.2921 5.45423 21.1603 5.41318 21.0873 5.39711C21.0142 5.38105 20.8824 5.36142 20.7934 5.35071C20.7043 5.34178 20.5814 5.33465 20.5173 5.33643C20.4532 5.33822 20.3695 5.34179 20.3303 5.34536C20.2911 5.34892 20.1896 5.3632 20.1023 5.37748H20.1041ZM33.5751 1.15831C33.9028 1.15652 34.0809 1.16545 34.2163 1.18508C34.3196 1.19936 34.4906 1.23505 34.5992 1.26361C34.7079 1.29217 34.8522 1.335 34.9198 1.3582C34.9875 1.3814 35.1247 1.43673 35.2226 1.47957C35.3206 1.5224 35.4524 1.58308 35.5165 1.61699C35.5807 1.64912 35.6679 1.69909 35.7125 1.72765C35.757 1.75799 35.855 1.82402 35.9298 1.874C36.0046 1.92576 36.1399 2.02927 36.2326 2.10423C36.3234 2.17919 36.4623 2.30769 36.5425 2.38979C36.6209 2.47189 36.7384 2.60396 36.8008 2.68249C36.8649 2.76102 36.9611 2.8931 37.0163 2.97698C37.0715 3.06086 37.1463 3.18044 37.1837 3.24469C37.2193 3.30894 37.2639 3.38926 37.2817 3.42317C37.2995 3.45708 37.3387 3.53739 37.3654 3.60164C37.3939 3.6659 37.4366 3.77298 37.4616 3.84259C37.4883 3.91219 37.5293 4.0407 37.5542 4.12815C37.5791 4.21739 37.6112 4.33697 37.6254 4.39586C37.6397 4.45476 37.6593 4.57077 37.67 4.65465C37.6807 4.73854 37.6985 4.87061 37.7092 4.94914C37.7198 5.02767 37.7252 5.20436 37.7198 5.34178C37.7145 5.47921 37.7038 5.66483 37.6931 5.75228C37.6824 5.84152 37.6575 5.98965 37.6361 6.08246C37.6165 6.17527 37.5667 6.35731 37.5257 6.48403C37.4865 6.61075 37.4331 6.76424 37.4099 6.82314C37.3868 6.88203 37.3226 7.01946 37.2674 7.12654C37.214 7.23363 37.116 7.40318 37.0519 7.50134C36.986 7.59951 36.8756 7.75121 36.8061 7.84045C36.7349 7.92969 36.5817 8.09388 36.4659 8.20632C36.3483 8.31876 36.1987 8.45619 36.1293 8.50973C36.0616 8.56506 35.9262 8.66322 35.8282 8.72747C35.7303 8.79173 35.5771 8.88096 35.4898 8.92558C35.4025 8.96842 35.2779 9.0291 35.2137 9.05765C35.1496 9.088 34.9982 9.14511 34.8753 9.18437C34.7524 9.22542 34.569 9.2754 34.4656 9.29681C34.3623 9.31823 34.2466 9.34143 34.2074 9.35036C34.1682 9.35928 34.0132 9.37177 33.5929 9.39319V9.63949C33.5929 9.77334 33.584 9.92148 33.5751 9.96967C33.5644 10.0161 33.5483 10.1339 33.5394 10.232C33.5305 10.3302 33.5145 10.4623 33.5074 10.5265C33.4985 10.5908 33.4735 10.7193 33.4522 10.8121C33.4326 10.9049 33.4023 11.0298 33.3863 11.0887C33.372 11.1476 33.3524 11.2244 33.3435 11.2583C33.3346 11.2922 33.3043 11.3886 33.2758 11.4724C33.2473 11.5563 33.2064 11.6795 33.1832 11.7491C33.1618 11.8187 33.1173 11.9329 33.0835 12.0043C33.0496 12.0739 33.0229 12.1364 33.0229 12.1417C33.0229 12.1471 32.9962 12.2095 32.9623 12.2809C32.9303 12.3505 32.8893 12.438 32.8733 12.4719C32.8573 12.5058 32.8145 12.5879 32.7771 12.6522C32.7415 12.7164 32.6898 12.8039 32.6631 12.8431C32.6346 12.8842 32.6132 12.9306 32.6132 12.9449C32.6132 12.9591 32.6061 12.9734 32.599 12.977C32.5901 12.9788 32.5438 13.0395 32.4957 13.1126C32.4476 13.1858 32.3763 13.2911 32.3372 13.3464C32.298 13.4035 32.2427 13.4839 32.2125 13.5267C32.1822 13.5695 32.1216 13.6445 32.0753 13.6945C32.029 13.7426 31.9684 13.8158 31.9399 13.8551C31.9114 13.8944 31.7511 14.0603 31.5837 14.2263C31.4145 14.3905 31.272 14.5244 31.2649 14.5244C31.256 14.5244 31.2221 14.5511 31.1883 14.5833C31.1545 14.6154 31.069 14.685 31.0013 14.7403C30.9336 14.7939 30.8534 14.8528 30.8249 14.8724C30.7964 14.892 30.7555 14.9206 30.7341 14.9349C30.7127 14.9491 30.6148 15.0134 30.5186 15.0776C30.4224 15.1419 30.3155 15.2115 30.2817 15.2329C30.2461 15.2543 30.0947 15.3347 29.9433 15.4114C29.7919 15.4881 29.6672 15.556 29.6636 15.5649C29.6601 15.572 29.6405 15.5774 29.6209 15.5774C29.6013 15.5774 29.571 15.5845 29.555 15.5934C29.5371 15.6024 29.4873 15.6256 29.4427 15.647C29.3982 15.6666 29.2913 15.7077 29.2023 15.738C29.1132 15.7684 28.9743 15.8165 28.8906 15.8433C28.8069 15.8719 28.6679 15.9129 28.5789 15.9343C28.4898 15.9575 28.383 15.9825 28.3384 15.9914C28.2939 16.0004 28.2191 16.0146 28.1692 16.0236C28.1211 16.0343 28.0321 16.0486 27.9733 16.0557C27.9145 16.0646 27.8575 16.0753 27.8486 16.0825C27.8397 16.0878 27.7417 16.1039 27.6349 16.1146C27.5209 16.1289 27.2198 16.1378 26.9135 16.1378C26.6249 16.1378 26.3204 16.1324 26.2366 16.1253C26.1529 16.1182 26.014 16.0985 25.9249 16.0843C25.8359 16.0682 25.7201 16.0486 25.6667 16.0378C25.6132 16.0289 25.5366 16.0129 25.4975 16.0057C25.4583 15.9968 25.3692 15.9772 25.3015 15.9611C25.2338 15.9468 25.1448 15.9254 25.1056 15.9129C25.0664 15.9022 24.9898 15.879 24.9364 15.8612C24.883 15.8451 24.7939 15.8165 24.7405 15.8005C24.687 15.7844 24.5908 15.7523 24.5267 15.7273C24.4626 15.7023 24.3718 15.6666 24.3219 15.6452C24.2738 15.6256 24.085 15.5363 23.9033 15.4471C23.7216 15.3596 23.5204 15.2508 23.4545 15.2079C23.3868 15.1669 23.3298 15.1312 23.3244 15.1312C23.3191 15.1312 23.2639 15.0955 23.1997 15.0509C23.1356 15.0063 23.0804 14.9706 23.0751 14.9706C23.0697 14.9706 23.043 14.9527 23.0145 14.9313C22.986 14.9081 22.9326 14.8653 22.8952 14.8367C22.8595 14.8082 22.8168 14.7742 22.8008 14.7653C22.783 14.7564 22.7153 14.7028 22.6458 14.6475C22.5781 14.5922 22.3875 14.4155 22.2237 14.2549C22.0598 14.0942 21.9262 13.9532 21.9262 13.9443C21.9262 13.9354 22.042 13.8176 22.1809 13.6838C22.3198 13.5499 22.5389 13.3179 22.6672 13.1662C22.7972 13.0145 22.9664 12.8074 23.043 12.7039C23.1214 12.6004 23.2389 12.4344 23.3031 12.3345C23.369 12.2327 23.4349 12.1506 23.4491 12.1506C23.4634 12.1506 23.5221 12.1631 23.5791 12.1774C23.6557 12.197 23.784 12.2042 24.0992 12.2042C24.329 12.2042 24.6069 12.1953 24.7137 12.1863C24.8206 12.1774 24.9667 12.1596 25.0344 12.1489C25.102 12.1399 25.2356 12.1132 25.3282 12.0935C25.4209 12.0721 25.558 12.0346 25.631 12.0079C25.7041 11.9793 25.8288 11.924 25.9071 11.8829C25.9855 11.8419 26.0781 11.7901 26.112 11.7705C26.1476 11.7491 26.2545 11.6795 26.3524 11.6152C26.5181 11.5081 26.527 11.4992 26.4771 11.4939C26.4468 11.4903 26.3079 11.501 26.1654 11.5171C26.0229 11.5331 25.7664 11.5652 25.5954 11.5902C25.4244 11.6152 25.2 11.6456 25.0967 11.6598C24.9934 11.6723 24.8135 11.6884 24.6959 11.6937C24.5463 11.7027 24.4216 11.6973 24.2774 11.6777C24.117 11.6563 24.044 11.6366 23.9443 11.5884C23.873 11.5545 23.8142 11.5153 23.8142 11.5046C23.8142 11.4921 23.8784 11.3404 23.9585 11.169C24.0387 10.9977 24.1313 10.7853 24.1651 10.6961C24.199 10.6068 24.2756 10.3909 24.3344 10.2142C24.3913 10.0375 24.4662 9.78048 24.5 9.64306C24.5321 9.50563 24.5802 9.27718 24.6051 9.1344C24.63 8.99162 24.6585 8.82385 24.6692 8.7596C24.6781 8.69535 24.6977 8.51866 24.712 8.36695C24.7262 8.21525 24.744 7.95467 24.7511 7.78691C24.7583 7.60843 24.7547 7.34786 24.7422 7.15332C24.7298 6.97127 24.7102 6.71783 24.6941 6.59112C24.6799 6.4644 24.6443 6.2181 24.614 6.04677C24.5837 5.87543 24.5356 5.63449 24.5071 5.51134C24.4768 5.38819 24.4038 5.14011 24.345 4.95806C24.2863 4.77602 24.2115 4.56006 24.1794 4.47618C24.1473 4.39229 24.0707 4.21203 24.0102 4.07461C23.9496 3.93718 23.8641 3.75692 23.8214 3.67304C23.7786 3.58915 23.743 3.50884 23.743 3.49456C23.743 3.4785 23.7911 3.4428 23.8588 3.41068C23.9229 3.37855 23.9799 3.35178 23.9888 3.35178C23.9959 3.35178 24.0725 3.31787 24.1616 3.2786C24.2506 3.23755 24.345 3.19472 24.3753 3.18223C24.4056 3.16973 24.4893 3.13761 24.5623 3.11084C24.6354 3.08585 24.7725 3.03945 24.8651 3.0091C24.9578 2.97876 25.143 2.92701 25.2748 2.89488C25.4066 2.86097 25.5865 2.8217 25.6756 2.80564C25.7646 2.79136 25.884 2.76995 25.9427 2.76102C26.0015 2.7521 26.1529 2.73782 26.2812 2.72711C26.4094 2.71819 26.6766 2.71105 26.8779 2.71105C27.0791 2.71105 27.3427 2.71819 27.4656 2.7289C27.5885 2.73782 27.7453 2.7521 27.813 2.76102C27.8807 2.76995 28.041 2.7985 28.1692 2.82171C28.2975 2.84669 28.4809 2.88953 28.5789 2.91451C28.6768 2.9395 28.8567 2.99304 28.9796 3.03231C29.1025 3.07157 29.2361 3.11976 29.2789 3.13939C29.3198 3.15724 29.3644 3.1733 29.3768 3.1733C29.3875 3.1733 29.4071 3.18044 29.416 3.18758C29.4249 3.1965 29.4623 3.21435 29.4962 3.22685C29.53 3.23934 29.6333 3.28574 29.7242 3.32858C29.8132 3.36963 29.8934 3.40532 29.9023 3.40532C29.9094 3.40532 29.9272 3.38747 29.9415 3.36606C29.9557 3.34285 29.9824 3.29288 30.0003 3.25362C30.0181 3.21435 30.0947 3.08942 30.1695 2.97698C30.2443 2.86454 30.3458 2.7289 30.3957 2.67357C30.4438 2.62003 30.588 2.47011 30.7163 2.34339C30.8427 2.21667 30.9995 2.07211 31.0636 2.02213C31.126 1.97394 31.2382 1.89185 31.313 1.84366C31.386 1.79368 31.5232 1.70801 31.6158 1.65269C31.7084 1.59736 31.842 1.53132 31.9097 1.50455C31.9774 1.47778 32.0664 1.44209 32.1056 1.42424C32.1448 1.40639 32.2641 1.36534 32.3728 1.32965C32.4814 1.29574 32.6293 1.2529 32.7023 1.23684C32.7753 1.21899 32.9 1.19579 32.9784 1.1833C33.0621 1.16902 33.3079 1.16009 33.5751 1.15831ZM26.6018 7.02838C26.5127 7.04088 26.3774 7.06943 26.299 7.09085C26.2206 7.11405 26.0603 7.16938 25.9427 7.21578C25.8252 7.26219 25.6506 7.33893 25.5562 7.38712L25.3817 7.47457V7.65305C25.485 7.60843 25.599 7.55846 25.7023 7.51562C25.8056 7.47279 25.9784 7.41032 26.0852 7.3782C26.1921 7.34429 26.3934 7.29967 26.5305 7.27646C26.7069 7.24791 26.8494 7.2372 27.0204 7.2372C27.1807 7.2372 27.3321 7.25148 27.4746 7.27646C27.5921 7.2961 27.7684 7.34072 27.8664 7.37284C27.9644 7.40675 28.1318 7.47636 28.2405 7.5299C28.3473 7.58344 28.4417 7.62806 28.4489 7.63163C28.4578 7.63342 28.4631 7.59594 28.4631 7.54596C28.4631 7.45673 28.4631 7.45673 28.3705 7.40318C28.3188 7.37284 28.2048 7.31394 28.1158 7.27111C28.0267 7.22828 27.8753 7.16402 27.7774 7.13011C27.6794 7.0962 27.5316 7.05515 27.4478 7.03909C27.3641 7.02124 27.1878 7.00518 27.056 7.00161C26.9242 6.99804 26.8031 6.99804 26.7888 7.00161C26.7746 7.00518 26.6908 7.01767 26.6018 7.02838ZM9.36005 12.7414C9.38677 12.7396 9.46514 12.8199 9.64682 13.0377C9.78575 13.2019 10.0173 13.4571 10.1634 13.6034C10.3094 13.7498 10.5053 13.9354 10.598 14.0157C10.6906 14.096 10.8598 14.2335 10.972 14.3209C11.0842 14.4084 11.2338 14.5208 11.3015 14.569C11.371 14.619 11.526 14.7225 11.6489 14.7992C11.7718 14.8778 11.9606 14.9884 12.0674 15.0473C12.1743 15.108 12.3239 15.1865 12.3969 15.224C12.47 15.2615 12.6392 15.34 12.771 15.3989C12.9028 15.456 13.1041 15.5381 13.2163 15.5827C13.3285 15.6256 13.5583 15.7023 13.7239 15.7523C13.8896 15.8023 14.13 15.8683 14.2583 15.8986C14.3865 15.929 14.6377 15.9772 14.8193 16.0057C15.001 16.0343 15.2379 16.0682 15.3448 16.0807C15.4766 16.0967 15.7651 16.1039 16.2265 16.1039C16.7697 16.1021 16.9621 16.0967 17.1527 16.0718C17.2845 16.0539 17.4964 16.0236 17.6247 16.0039C17.7529 15.9843 17.9595 15.945 18.0878 15.9147C18.216 15.8861 18.4191 15.8344 18.7646 15.7344L18.9089 15.829C18.9891 15.8826 19.1476 15.9897 19.2634 16.0682C19.3791 16.1467 19.4824 16.2145 19.4931 16.2181C19.5038 16.2235 19.5288 16.2413 19.5483 16.2592C19.5679 16.277 19.6517 16.3377 19.7354 16.3948C19.8191 16.4501 19.9509 16.5447 20.0293 16.6036C20.1076 16.6625 20.2074 16.7357 20.2519 16.7642C20.2964 16.7928 20.3481 16.8321 20.3677 16.8481C20.3873 16.866 20.4674 16.9267 20.5458 16.9838C20.6242 17.0427 20.715 17.1141 20.8041 17.2015V20.1374C20.8041 21.7527 20.8005 23.0859 20.7952 23.1001C20.7898 23.1144 20.7738 23.1269 20.7595 23.1269C20.7453 23.1269 20.6705 23.0734 20.5957 23.0073C20.5209 22.9395 20.4051 22.8378 20.3392 22.7789C20.2733 22.72 20.1611 22.62 20.0898 22.5558C20.0186 22.4915 19.9206 22.4023 19.8707 22.3577C19.8209 22.3131 19.6962 22.2006 19.5947 22.1078C19.4931 22.015 19.299 21.8437 19.1636 21.7259C19.0282 21.6081 18.8662 21.4707 18.8056 21.4207C18.7433 21.3689 18.6221 21.269 18.5331 21.1976C18.444 21.1262 18.3639 21.0602 18.355 21.053C18.3461 21.0441 18.2802 20.9923 18.2125 20.9352C18.143 20.8799 17.9756 20.7496 17.8402 20.6461C17.7048 20.5426 17.5552 20.4301 17.5089 20.3962C17.4608 20.3623 17.3967 20.3123 17.3629 20.2874C17.3308 20.2624 17.2489 20.2017 17.1812 20.1535C17.1153 20.1053 17.0137 20.0321 16.9585 19.9911C16.9033 19.95 16.8232 19.8929 16.7786 19.8662C16.7341 19.8394 16.6949 19.8126 16.6896 19.8073C16.6842 19.8019 16.6415 19.7698 16.5916 19.7359C16.5435 19.7037 16.3387 19.5663 16.1374 19.4325C15.9361 19.2986 15.7491 19.1755 15.7188 19.1576C15.6885 19.1415 15.644 19.1148 15.6173 19.0969C15.5924 19.0809 15.5069 19.0273 15.4303 18.9791C15.3537 18.9309 15.2628 18.8738 15.229 18.8524C15.1952 18.831 15.1221 18.7864 15.0687 18.7543C15.0153 18.7221 14.8781 18.6418 14.7659 18.5793C14.6537 18.5151 14.4809 18.4187 14.383 18.3652C14.285 18.3116 14.0392 18.1849 13.8361 18.0832C13.6313 17.9815 13.4621 17.8976 13.4567 17.8976C13.4514 17.8976 13.3659 17.8583 13.2662 17.8101C13.1646 17.7619 13.0542 17.712 13.0204 17.6959C12.9865 17.6816 12.9224 17.6531 12.8779 17.6352C12.8333 17.6156 12.7692 17.5888 12.7354 17.5781C12.7015 17.5656 12.657 17.5478 12.6374 17.5388C12.6178 17.5317 12.5501 17.5031 12.486 17.4781C12.4219 17.4514 12.2776 17.3996 12.1654 17.3621C12.0532 17.3247 11.8964 17.2765 11.8181 17.2568C11.7397 17.2372 11.6079 17.2051 11.5242 17.1854C11.4405 17.1658 11.2695 17.1337 11.1412 17.1141C11.0148 17.0944 10.8331 17.0694 10.7405 17.0569C10.6461 17.0445 10.3718 17.0337 10.117 17.0337C9.86768 17.0337 9.6112 17.0391 9.54707 17.0462C9.48295 17.0534 9.34758 17.073 9.24427 17.0873C9.14097 17.1034 8.9771 17.1266 8.87914 17.139C8.78117 17.1533 8.64936 17.1765 8.58524 17.1926C8.52112 17.2069 8.40178 17.2372 8.31807 17.2568C8.23435 17.2765 8.10611 17.314 8.03308 17.3372C7.96005 17.3604 7.87099 17.3889 7.83715 17.3996C7.80331 17.4103 7.70712 17.446 7.62341 17.4781C7.53969 17.5121 7.42036 17.5585 7.35623 17.5817C7.29211 17.6049 7.1888 17.6513 7.12468 17.6816C7.06056 17.7137 6.98575 17.7512 6.95547 17.7673C6.92697 17.7816 6.83079 17.8315 6.74173 17.8779C6.65267 17.9243 6.5458 17.985 6.50127 18.0136C6.45674 18.0403 6.34453 18.1135 6.25191 18.1742C6.15929 18.2349 5.99364 18.3545 5.88677 18.4401C5.7799 18.5258 5.65878 18.6204 5.62137 18.6525C5.58219 18.6846 5.45572 18.8024 5.33995 18.9149C5.22417 19.0273 5.08346 19.1808 5.02646 19.254C4.97125 19.3272 4.91603 19.3968 4.90534 19.4057C4.89466 19.4146 4.84656 19.4753 4.79847 19.5395C4.75038 19.6038 4.67735 19.7037 4.63817 19.7626C4.5972 19.8215 4.53664 19.9143 4.5028 19.9679C4.46718 20.0214 4.3888 20.1589 4.32824 20.2713C4.2659 20.3837 4.17684 20.5604 4.12875 20.6639C4.08066 20.7675 3.98626 21.0209 3.91858 21.2261C3.85089 21.4314 3.78321 21.6527 3.76718 21.717C3.75293 21.7812 3.72087 21.9418 3.69771 22.0739C3.67455 22.206 3.64784 22.3755 3.63537 22.4487C3.62468 22.5219 3.60687 22.6629 3.59796 22.761C3.58906 22.8592 3.58015 23.2001 3.58015 23.5196C3.58015 23.9122 3.58906 24.1781 3.60687 24.3406C3.62112 24.4726 3.64427 24.685 3.66031 24.8135C3.67634 24.942 3.69593 25.0902 3.70483 25.1437C3.71374 25.1972 3.7458 25.3579 3.77608 25.5006C3.80458 25.6434 3.84555 25.8237 3.86336 25.9022C3.88117 25.9807 3.92926 26.1664 3.97023 26.3127C4.0112 26.4608 4.06463 26.6482 4.09135 26.7321C4.11628 26.816 4.16438 26.9641 4.19822 27.0623C4.23028 27.1605 4.28728 27.3247 4.32112 27.4282C4.35674 27.5317 4.40305 27.6602 4.42621 27.7137C4.44758 27.7673 4.48855 27.869 4.51527 27.9368C4.54198 28.0047 4.57583 28.085 4.58829 28.1153C4.60076 28.1457 4.63817 28.2403 4.67201 28.3295C4.70585 28.4187 4.75038 28.5222 4.76997 28.5615C4.78957 28.6008 4.82697 28.6811 4.85369 28.74C4.87863 28.7989 4.91603 28.8881 4.93919 28.9363C4.96056 28.9863 5.10483 29.279 5.2598 29.5877C5.41476 29.8965 5.55725 30.1696 5.57328 30.1946C5.59109 30.2195 5.62494 30.2802 5.64809 30.3284C5.67303 30.3784 5.74427 30.5087 5.80662 30.6193C5.87074 30.73 5.93842 30.8496 5.9598 30.887C5.97939 30.9227 6.05598 31.053 6.12901 31.1726C6.20204 31.294 6.29288 31.4475 6.33206 31.5117C6.37125 31.5778 6.47455 31.7402 6.56183 31.8722C6.64911 32.0043 6.73104 32.1292 6.74529 32.1489C6.75776 32.1685 6.83257 32.2809 6.91094 32.3987C6.98931 32.5165 7.09084 32.6647 7.13715 32.7271C7.18524 32.7914 7.26005 32.8949 7.30636 32.9592C7.35267 33.0234 7.42214 33.1216 7.45776 33.1751C7.49517 33.2287 7.5486 33.3054 7.57888 33.3447C7.60738 33.3821 7.64122 33.4285 7.65013 33.4446C7.65903 33.4607 7.74809 33.5838 7.84606 33.7159C7.94402 33.848 8.08829 34.0425 8.16667 34.1478C8.24504 34.2531 8.34478 34.387 8.38931 34.4441C8.43384 34.5012 8.48906 34.5779 8.514 34.6118C8.53893 34.6475 8.61018 34.7421 8.6743 34.8224C8.73842 34.9028 8.79542 34.9724 8.80076 34.9777C8.80611 34.9831 8.82214 35.0063 8.83461 35.0313C8.84707 35.0562 8.86845 35.0884 8.8827 35.1027C8.89517 35.1169 8.97354 35.2169 9.05369 35.3222C9.13384 35.4275 9.21578 35.5363 9.23537 35.5631C9.25496 35.5899 9.31196 35.6631 9.36005 35.7255C9.40992 35.788 9.47761 35.879 9.51145 35.9254C9.54529 35.9736 9.63079 36.0878 9.70025 36.1789C9.76794 36.2681 9.95496 36.518 10.1135 36.7321C10.272 36.9445 10.4109 37.1194 10.4198 37.1194C10.4288 37.1194 10.4466 37.1462 10.4573 37.1783C10.4679 37.2087 10.5374 37.3158 10.614 37.4139C10.6888 37.5121 10.7885 37.6495 10.8349 37.7173C10.8794 37.7851 10.9524 37.8904 10.9969 37.9493C11.0397 38.0082 11.1127 38.1171 11.1608 38.1903C11.2071 38.2635 11.2588 38.3402 11.2748 38.3598C11.2926 38.3795 11.3674 38.4883 11.4422 38.6008C11.517 38.7132 11.5919 38.8221 11.6061 38.8417C11.6204 38.8614 11.6952 38.9738 11.7718 39.0916C11.8466 39.2094 11.9641 39.3932 12.03 39.5021C12.0977 39.611 12.1779 39.7395 12.2099 39.7876C12.242 39.8376 12.3061 39.9411 12.3524 40.0197C12.3987 40.0982 12.4557 40.1981 12.4789 40.2428C12.5038 40.2874 12.543 40.3552 12.5662 40.3945C12.5893 40.4337 12.6374 40.5176 12.673 40.5819C12.7069 40.6461 12.7585 40.7389 12.7852 40.7871C12.812 40.8371 12.9028 41.0049 12.9865 41.1619C13.0702 41.319 13.202 41.5795 13.2822 41.742C13.3623 41.9044 13.4763 42.14 13.5369 42.2685C13.5975 42.397 13.658 42.529 13.6705 42.5629C13.683 42.5969 13.7204 42.6861 13.7542 42.7593C13.788 42.8324 13.8539 42.9859 13.8985 43.0984C13.943 43.2108 14.0232 43.4161 14.0766 43.5535C14.1318 43.6909 14.1924 43.8533 14.212 43.9158C14.2333 43.9765 14.2565 44.0407 14.2654 44.0586C14.2743 44.0746 14.3028 44.1532 14.326 44.2317C14.3509 44.3102 14.4008 44.4673 14.4399 44.5797C14.4791 44.6922 14.5326 44.8617 14.5593 44.9545C14.586 45.0473 14.6145 45.1384 14.6252 45.1562C14.6341 45.1723 14.6412 45.2008 14.6412 45.2187C14.6412 45.2347 14.6804 45.3936 14.7303 45.5703C14.7784 45.747 14.8282 45.9201 14.8371 45.954C14.8478 45.9879 14.8692 46.0771 14.8835 46.1503C14.8995 46.2235 14.9244 46.3324 14.9369 46.3913C14.9511 46.4502 14.9743 46.5626 14.9903 46.6411C15.0046 46.7197 15.0277 46.8285 15.042 46.8821C15.0562 46.9356 15.0758 47.0445 15.0865 47.123C15.0972 47.2015 15.1132 47.289 15.1221 47.3193C15.131 47.3497 15.1489 47.4336 15.1649 47.5067C15.1791 47.5799 15.2005 47.7138 15.213 47.8012C15.2272 47.919 15.229 47.9636 15.213 47.9672C15.2023 47.969 15.1969 47.9779 15.2023 47.9886C15.2076 47.9993 15.2005 48.0029 15.1898 47.9975C15.1774 47.9922 15.1453 47.9226 15.1186 47.8423C15.0919 47.7602 15.0366 47.6102 14.9957 47.5067C14.9547 47.4032 14.9102 47.2926 14.8977 47.2622C14.8835 47.2301 14.8728 47.1962 14.8728 47.1855C14.8728 47.1748 14.8371 47.082 14.7944 46.9767C14.7517 46.8696 14.7036 46.7553 14.6875 46.7214C14.6733 46.6875 14.6127 46.543 14.5539 46.4002C14.4969 46.2574 14.4186 46.0771 14.383 45.9986C14.3473 45.9201 14.2903 45.7969 14.2565 45.7273C14.2226 45.6559 14.1959 45.5935 14.1959 45.5881C14.1959 45.5828 14.0908 45.3686 13.9626 45.1116C13.8361 44.8528 13.7204 44.6297 13.7079 44.6154C13.6954 44.6011 13.6705 44.553 13.6545 44.5083C13.6366 44.4637 13.6117 44.4155 13.5992 44.4012C13.5868 44.387 13.5636 44.3459 13.5476 44.312C13.5316 44.2781 13.4941 44.2031 13.4621 44.1478C13.43 44.0907 13.3784 43.9979 13.3481 43.9426C13.316 43.8855 13.2466 43.7659 13.1931 43.6784C13.1379 43.591 13.0631 43.466 13.0275 43.4018C12.9919 43.3375 12.9081 43.2055 12.8422 43.1073C12.7781 43.0091 12.6819 42.861 12.6303 42.7771C12.5804 42.6932 12.4949 42.5612 12.4415 42.4826C12.388 42.4041 12.3025 42.281 12.2509 42.2078C12.1992 42.1346 12.1084 42.0061 12.0496 41.9204C11.9908 41.8348 11.8822 41.6848 11.8092 41.5885C11.7361 41.4921 11.6471 41.3761 11.6115 41.3315C11.5758 41.2868 11.5224 41.219 11.4957 41.178C11.4672 41.1369 11.3959 41.0405 11.3354 40.9638C11.2766 40.8871 11.1483 40.7282 11.0504 40.614C10.9542 40.4998 10.842 40.3641 10.8028 40.3142C10.7636 40.2642 10.5997 40.0679 10.4394 39.8805C10.2774 39.6913 10.101 39.4896 10.0476 39.4307C9.99237 39.3718 9.88728 39.2558 9.81425 39.1737C9.74122 39.0916 9.67176 39.0148 9.66107 39.0041C9.65038 38.9934 9.57557 38.9078 9.49364 38.815C9.41349 38.7221 9.20509 38.4973 9.03232 38.317C8.85954 38.135 8.61908 37.8815 8.49796 37.7548C8.37506 37.6263 8.26285 37.5085 8.24682 37.4942C8.23079 37.48 8.05801 37.2997 7.86209 37.0927C7.66794 36.8856 7.45954 36.6697 7.40076 36.609C7.34198 36.5483 7.17812 36.377 7.03562 36.2271C6.89313 36.0771 6.7257 35.8987 6.66158 35.829C6.59746 35.7612 6.43003 35.5792 6.28753 35.4257C6.14504 35.2722 5.97939 35.0902 5.91705 35.0223C5.85471 34.9527 5.76209 34.8492 5.71221 34.7921C5.66056 34.735 5.52697 34.5815 5.41476 34.453C5.30254 34.3245 5.16896 34.1728 5.12086 34.1157C5.07099 34.0568 5.01221 33.9836 4.98728 33.9515C4.96234 33.9194 4.85903 33.7926 4.75572 33.6695C4.65242 33.5463 4.52239 33.3875 4.46539 33.3143C4.4084 33.2429 4.29262 33.0966 4.20712 32.9895C4.12163 32.8824 4.03969 32.7789 4.02544 32.7575C4.0112 32.7378 3.9542 32.6593 3.8972 32.5861C3.84198 32.513 3.7743 32.4237 3.74936 32.3898C3.72443 32.3559 3.63715 32.2381 3.557 32.131C3.47506 32.0239 3.36463 31.8669 3.30941 31.783C3.25242 31.6991 3.1687 31.5742 3.12061 31.5064C3.07252 31.4385 2.96921 31.2868 2.89262 31.1708C2.81425 31.0548 2.74478 30.9459 2.7341 30.9299C2.72519 30.9138 2.6486 30.7907 2.56489 30.6586C2.48295 30.5265 2.38677 30.3677 2.35115 30.307C2.3173 30.2445 2.22824 30.0893 2.15343 29.959C2.07684 29.8287 1.98601 29.6645 1.95038 29.5967C1.91298 29.5288 1.87023 29.4521 1.85242 29.4271C1.83639 29.4021 1.81145 29.3539 1.79898 29.32C1.78651 29.2861 1.76158 29.2379 1.74555 29.2129C1.72952 29.188 1.64046 29.0113 1.54606 28.8203C1.45165 28.6293 1.32341 28.3598 1.26285 28.2224C1.20229 28.085 1.14707 27.9529 1.13817 27.9279C1.13104 27.9029 1.08651 27.7941 1.04198 27.687C0.995674 27.5799 0.942239 27.446 0.922646 27.3925C0.903053 27.3389 0.860305 27.2176 0.826463 27.1248C0.792621 27.032 0.728499 26.8428 0.683969 26.7054C0.63944 26.5679 0.584224 26.3948 0.561069 26.3216C0.537914 26.2485 0.498728 26.111 0.473791 26.0182C0.448855 25.9254 0.393639 25.7041 0.349109 25.5274C0.30458 25.3507 0.249364 25.1026 0.224427 24.9741C0.201272 24.8456 0.170992 24.6779 0.160305 24.5993C0.149618 24.5208 0.133588 24.4173 0.124682 24.3673C0.115776 24.3191 0.0997455 24.2174 0.0908397 24.1442C0.0819338 24.0711 0.0641221 23.914 0.0552163 23.7962C0.0445293 23.6784 0.0284987 23.4892 0.0178117 23.3768C0.00890585 23.2643 0 22.9663 0 22.7164C0 22.4059 0.010687 22.1364 0.0356234 21.8687C0.0552163 21.6527 0.0783715 21.4153 0.0890585 21.3422C0.0997455 21.269 0.115776 21.1726 0.124682 21.128C0.133588 21.0834 0.144275 21.012 0.149618 20.9674C0.154962 20.9227 0.170992 20.8192 0.187023 20.7353C0.203053 20.6515 0.236896 20.4998 0.260051 20.3962C0.283206 20.2927 0.315267 20.1696 0.329517 20.1196C0.343766 20.0714 0.38117 19.9465 0.41145 19.843C0.44173 19.7394 0.480916 19.6074 0.498728 19.5485C0.516539 19.4896 0.552163 19.3807 0.577099 19.3075C0.603817 19.2344 0.632316 19.1594 0.641221 19.1433C0.651908 19.1255 0.682188 19.0487 0.710687 18.9738C0.740967 18.897 0.787277 18.7775 0.815776 18.7096C0.844275 18.6418 0.919084 18.4848 0.979644 18.3616C1.0402 18.2385 1.11857 18.0814 1.15242 18.0136C1.18626 17.9458 1.23969 17.8529 1.26819 17.8083C1.29847 17.7637 1.33588 17.6995 1.35369 17.6656C1.3715 17.6316 1.43206 17.5317 1.48906 17.4442C1.54784 17.3568 1.62443 17.239 1.66183 17.1819C1.69746 17.123 1.77226 17.0177 1.8257 16.9481C1.87913 16.8767 1.9486 16.7821 1.98066 16.7393C2.01272 16.6964 2.06972 16.625 2.10712 16.5786C2.14453 16.534 2.21934 16.4412 2.27634 16.3734C2.33155 16.3056 2.49008 16.1289 2.62723 15.9825C2.76438 15.8344 2.99415 15.6095 3.13664 15.481C3.27913 15.3525 3.42875 15.2204 3.46616 15.1883C3.50356 15.1562 3.59975 15.0812 3.67634 15.0188C3.75471 14.9581 3.86692 14.8706 3.9257 14.8224C3.98626 14.776 4.1626 14.6529 4.31934 14.5476C4.47608 14.4441 4.64529 14.3316 4.69338 14.2977C4.74326 14.2656 4.78779 14.2388 4.79669 14.2388C4.80382 14.2388 4.85191 14.212 4.90356 14.1799C4.95343 14.146 5.09237 14.0693 5.20992 14.0068C5.32748 13.9425 5.50738 13.8515 5.61069 13.8015C5.71399 13.7516 5.83868 13.6945 5.88677 13.673C5.93664 13.6516 6.03282 13.6088 6.10051 13.5785C6.16997 13.5481 6.30534 13.4928 6.40331 13.4553C6.50127 13.4178 6.67405 13.3536 6.78626 13.3143C6.89847 13.275 7.06768 13.2197 7.16031 13.1894C7.25293 13.1608 7.39364 13.118 7.47201 13.0948C7.55038 13.0734 7.64656 13.0484 7.68575 13.0412C7.72494 13.0341 7.80153 13.0163 7.85496 13.002C7.9084 12.9877 8.01349 12.9645 8.08651 12.9484C8.15954 12.9324 8.31629 12.9002 8.43384 12.8753C8.5514 12.8521 8.75267 12.8181 8.87914 12.8039C9.00738 12.7878 9.15878 12.7664 9.21756 12.7592C9.27634 12.7503 9.34046 12.7432 9.36005 12.7414ZM33.6819 12.8753C33.6962 12.8788 33.7852 12.8985 33.8779 12.9199C33.9705 12.9413 34.0827 12.9645 34.1272 12.9716C34.1718 12.9806 34.243 12.9984 34.2875 13.0145C34.3321 13.0305 34.3802 13.043 34.3944 13.043C34.4086 13.043 34.5244 13.0734 34.6527 13.1126C34.7809 13.1501 35.0445 13.2376 35.2405 13.3072C35.4364 13.375 35.7125 13.4821 35.855 13.5428C35.9975 13.6034 36.2415 13.7159 36.3982 13.7944C36.555 13.8712 36.7669 13.98 36.8702 14.0353C36.9735 14.0907 37.0893 14.1585 37.1285 14.1853C37.1677 14.2103 37.2122 14.237 37.2265 14.2424C37.2407 14.2477 37.3618 14.3245 37.4936 14.4137C37.6254 14.503 37.8018 14.6225 37.8855 14.6796C37.9692 14.7368 38.158 14.8795 38.3041 14.9956C38.4519 15.1133 38.671 15.299 38.7939 15.4096C38.9168 15.5203 39.1127 15.7095 39.2303 15.8308C39.3478 15.9522 39.485 16.095 39.5331 16.1485C39.583 16.202 39.6542 16.2877 39.6916 16.3359C39.7308 16.3859 39.7771 16.4412 39.7949 16.4608C39.8127 16.4805 39.9053 16.5965 40.0015 16.7196C40.0995 16.8428 40.258 17.0641 40.356 17.2104C40.4539 17.3586 40.5555 17.5138 40.5822 17.5585C40.6089 17.6031 40.6588 17.687 40.6944 17.7459C40.7282 17.8048 40.8476 18.0332 40.9598 18.2545C41.0702 18.4758 41.1807 18.7132 41.2074 18.781C41.2323 18.8488 41.2608 18.9149 41.2679 18.9238C41.2751 18.9327 41.3 18.9934 41.3214 19.0577C41.3445 19.1219 41.3908 19.2451 41.4247 19.3343C41.4585 19.4235 41.5155 19.5877 41.5476 19.7002C41.5814 19.8126 41.6331 19.9982 41.6634 20.1107C41.6936 20.2231 41.7239 20.3445 41.7328 20.3784C41.7399 20.4123 41.7649 20.5176 41.7845 20.6104C41.8059 20.7032 41.8308 20.8281 41.8397 20.887C41.8486 20.9459 41.8682 21.078 41.8842 21.1815C41.8985 21.285 41.9234 21.4689 41.9359 21.592C41.9501 21.7152 41.9697 21.9436 41.9804 22.1007C41.9911 22.2577 42 22.5504 42 22.7521C42 22.9538 41.9929 23.2465 41.9822 23.4036C41.9715 23.5606 41.9555 23.7784 41.9448 23.8854C41.9341 23.9925 41.9198 24.1228 41.9109 24.171C41.902 24.221 41.8824 24.3638 41.8664 24.4923C41.8486 24.6208 41.8237 24.785 41.8094 24.8581C41.7934 24.9313 41.7774 25.0116 41.7738 25.0366C41.7684 25.0616 41.7489 25.1615 41.7293 25.2597C41.7097 25.3579 41.6669 25.5417 41.6349 25.6702C41.6028 25.7987 41.5511 26.0022 41.5191 26.1253C41.487 26.2485 41.455 26.3609 41.4461 26.3752C41.4371 26.3895 41.3944 26.518 41.3517 26.6607C41.3071 26.8035 41.2448 26.9998 41.2109 27.098C41.1771 27.1962 41.1361 27.305 41.1201 27.3389C41.1059 27.3729 41.0631 27.4782 41.0293 27.571C40.9936 27.6638 40.9402 27.8012 40.9099 27.8744C40.8796 27.9476 40.8031 28.1225 40.7407 28.2635C40.6784 28.4027 40.6285 28.5205 40.6285 28.5258C40.6285 28.5312 40.5555 28.6847 40.4664 28.8703C40.3773 29.0541 40.2224 29.3557 40.1244 29.5431C40.0265 29.7305 39.9392 29.884 39.9303 29.8876C39.9232 29.8894 39.916 29.9019 39.916 29.9144C39.916 29.9251 39.8715 30.0125 39.8163 30.1053C39.7611 30.1981 39.6969 30.307 39.6756 30.3463C39.6524 30.3855 39.5936 30.4819 39.5438 30.5604C39.4939 30.639 39.4422 30.7229 39.4316 30.7478C39.4191 30.7728 39.4048 30.796 39.3977 30.8014C39.3924 30.8067 39.355 30.8674 39.314 30.9352C39.273 31.0031 39.1733 31.1601 39.0931 31.2833C39.0112 31.4064 38.9204 31.5385 38.8901 31.5778C38.8598 31.617 38.817 31.6813 38.7939 31.7205C38.7707 31.7598 38.7458 31.7955 38.7387 31.8008C38.7333 31.8062 38.6995 31.8544 38.6639 31.9079C38.63 31.9615 38.5677 32.0525 38.5249 32.1078C38.4822 32.1649 38.427 32.2381 38.402 32.2738C38.3771 32.3095 38.3148 32.3952 38.2613 32.4666C38.2079 32.5362 38.1224 32.6522 38.0707 32.72C38.0191 32.7878 37.9425 32.8913 37.8997 32.9484C37.857 33.0038 37.7394 33.1555 37.6361 33.284C37.5328 33.4107 37.4224 33.5535 37.3903 33.5999C37.3565 33.6463 37.3048 33.7159 37.2746 33.7534C37.2425 33.7926 37.0697 33.9961 36.888 34.2067C36.7064 34.4191 36.498 34.6654 36.4249 34.7546C36.3519 34.8439 36.2201 34.9974 36.1328 35.0955C36.0438 35.1919 35.9476 35.3008 35.9155 35.3347C35.8852 35.3686 35.7641 35.5007 35.6483 35.6292C35.5308 35.7559 35.3687 35.9326 35.2868 36.0218C35.2066 36.1093 35.0695 36.2574 34.984 36.3484C34.9003 36.4394 34.8112 36.5322 34.788 36.5537C34.7649 36.5751 34.7114 36.6286 34.6723 36.6715C34.6313 36.7143 34.4674 36.8821 34.3053 37.0463C34.1433 37.2087 33.8832 37.4675 33.7265 37.6192C33.5697 37.7709 33.4094 37.9226 33.3702 37.9547C33.331 37.9886 33.1707 38.1385 33.014 38.2884C32.8573 38.4366 32.6417 38.6383 32.5331 38.7346C32.4244 38.8328 32.2891 38.9559 32.2303 39.0095C32.1715 39.0648 32.0807 39.1451 32.0272 39.1898C31.9738 39.2344 31.899 39.2986 31.858 39.3361C31.817 39.3718 31.7547 39.4236 31.7191 39.4521C31.6835 39.4789 31.5695 39.5753 31.4679 39.6627C31.3664 39.7502 31.2453 39.8573 31.1954 39.8983C31.1473 39.9376 31.012 40.0536 30.8944 40.1517C30.7768 40.2517 30.6682 40.3445 30.6539 40.357C30.6397 40.3713 30.5952 40.4052 30.556 40.4319C30.5168 40.4587 30.4117 40.5408 30.3226 40.6158C30.2336 40.6907 30.1053 40.7943 30.0377 40.846C29.97 40.8978 29.7545 41.0655 29.5585 41.219C29.3626 41.3707 29.1827 41.5099 29.1578 41.526C29.1328 41.5403 29.0064 41.6349 28.8746 41.733C28.7445 41.8312 28.5967 41.9401 28.545 41.974C28.4952 42.0079 28.374 42.0971 28.2761 42.1703C28.1781 42.2435 28.0178 42.3595 27.9198 42.4255C27.8219 42.4933 27.6384 42.6201 27.5102 42.7075C27.3819 42.795 27.186 42.9288 27.0738 43.0038C26.9616 43.077 26.8031 43.184 26.7211 43.2394C26.641 43.2947 26.5252 43.3714 26.4628 43.4089C26.4023 43.4482 26.2954 43.516 26.2277 43.5606C26.16 43.6052 26.0639 43.6659 26.014 43.6963C25.9659 43.7284 25.8679 43.7891 25.8003 43.8337C25.7326 43.8783 25.6471 43.9283 25.6132 43.9461C25.5794 43.964 25.4832 44.0229 25.3995 44.0764C25.3158 44.1318 25.1003 44.262 24.9186 44.3656C24.7369 44.4709 24.5659 44.5708 24.5356 44.5904C24.5071 44.6083 24.4608 44.6368 24.4359 44.6511C24.4092 44.6654 24.3522 44.6975 24.3094 44.7189C24.2489 44.7528 24.2293 44.7564 24.2204 44.7368C24.2132 44.7243 24.2061 44.71 24.2061 44.7047C24.2061 44.6993 24.2969 44.6101 24.4056 44.5065C24.516 44.4012 24.6354 44.2942 24.6692 44.2674C24.7031 44.2388 24.7885 44.1621 24.8562 44.0978C24.9239 44.0318 25.0486 43.914 25.1323 43.8373C25.216 43.7605 25.4725 43.516 25.7023 43.2947C25.9321 43.0734 26.4771 42.5362 26.9135 42.0989C27.3499 41.6616 27.8397 41.1673 28 40.9995C28.1621 40.8335 28.415 40.5676 28.5611 40.4105C28.7089 40.2553 28.8692 40.0821 28.9191 40.0286C28.9672 39.975 29.0313 39.9019 29.058 39.868C29.0865 39.834 29.1702 39.7377 29.245 39.6556C29.3198 39.5735 29.4374 39.445 29.5069 39.37C29.5763 39.2951 29.7723 39.0791 29.9433 38.8881C30.1142 38.6972 30.2941 38.4919 30.344 38.433C30.3939 38.3723 30.5132 38.2313 30.6076 38.1189C30.702 38.0065 30.8018 37.8904 30.8267 37.8601C30.8517 37.8298 30.9656 37.6941 31.0814 37.5567C31.1954 37.4193 31.3254 37.2586 31.3718 37.1997C31.4181 37.1408 31.4982 37.0427 31.5499 36.982C31.5997 36.9213 31.7066 36.7946 31.785 36.7C31.8634 36.6054 31.956 36.4894 31.9898 36.443C32.0237 36.3948 32.1679 36.2074 32.3104 36.0254C32.4529 35.8433 32.6061 35.6434 32.6524 35.581C32.6987 35.5185 32.8359 35.3382 32.9552 35.1776C33.0763 35.0188 33.2313 34.8117 33.299 34.7171C33.3667 34.6243 33.4628 34.494 33.5092 34.428C33.5555 34.362 33.6143 34.2799 33.6374 34.246C33.6606 34.2121 33.7514 34.0853 33.8369 33.9658C33.9224 33.8444 34.056 33.657 34.1326 33.5463C34.2092 33.4357 34.3143 33.2804 34.3641 33.2019C34.4158 33.1234 34.5137 32.9752 34.5832 32.8717C34.6527 32.7682 34.772 32.5861 34.8504 32.4666C34.927 32.347 35.0641 32.1364 35.1514 31.999C35.2387 31.8597 35.3455 31.6938 35.3865 31.6277C35.4275 31.5599 35.4863 31.4617 35.5183 31.4082C35.5486 31.3547 35.6003 31.2708 35.6323 31.2208C35.6644 31.1726 35.7249 31.0709 35.7659 30.9977C35.8087 30.9245 35.8763 30.8121 35.9155 30.7478C35.9547 30.6836 36.042 30.5319 36.1097 30.4087C36.1774 30.2856 36.2807 30.0964 36.3377 29.9893C36.3964 29.8822 36.5496 29.5753 36.6814 29.3111C36.8114 29.047 36.945 28.7685 36.9771 28.6954C37.0092 28.6222 37.0733 28.4776 37.1214 28.3741C37.1677 28.2706 37.2318 28.126 37.2621 28.0529C37.2941 27.9797 37.3422 27.8547 37.369 27.7762C37.3975 27.6977 37.458 27.5371 37.5025 27.4193C37.5489 27.3015 37.6005 27.1605 37.6183 27.1069C37.6361 27.0534 37.6842 26.9053 37.7234 26.7767C37.7626 26.6482 37.8303 26.4162 37.8748 26.2592C37.9176 26.1021 37.9567 25.954 37.9621 25.929C37.9674 25.904 37.9959 25.7684 38.0262 25.6256C38.0565 25.4828 38.1064 25.2294 38.1366 25.0634C38.1651 24.8974 38.2008 24.6672 38.215 24.5547C38.231 24.4423 38.2506 24.1407 38.2631 23.8854C38.2791 23.5249 38.2791 23.3339 38.2631 23.0288C38.2506 22.8128 38.2328 22.5683 38.2239 22.4844C38.215 22.4005 38.1865 22.2238 38.1598 22.0918C38.1349 21.9597 38.0868 21.7419 38.0511 21.6099C38.0173 21.4778 37.9603 21.285 37.9265 21.1815C37.8908 21.078 37.8392 20.937 37.8107 20.8692C37.7822 20.8014 37.7394 20.6996 37.7163 20.6461C37.6931 20.5926 37.6201 20.448 37.556 20.3248C37.4901 20.2017 37.4277 20.0893 37.4153 20.075C37.4046 20.0607 37.3796 20.0196 37.3618 19.9857C37.344 19.9518 37.2692 19.8394 37.198 19.7359C37.1267 19.6324 36.9824 19.4485 36.8791 19.3254C36.774 19.2022 36.6369 19.0505 36.5746 18.9863C36.5122 18.922 36.4142 18.8274 36.359 18.7775C36.302 18.7257 36.2237 18.6561 36.1845 18.624C36.1453 18.5901 36.0331 18.5008 35.9351 18.4259C35.8372 18.3491 35.6786 18.2367 35.5824 18.176C35.4863 18.1171 35.358 18.0368 35.2975 17.9975C35.2369 17.96 35.0944 17.8833 34.9822 17.8262C34.87 17.7691 34.7293 17.6995 34.6705 17.6745C34.6117 17.6477 34.4995 17.6031 34.4211 17.5745C34.3427 17.546 34.2555 17.5103 34.2252 17.4978C34.1949 17.4835 34.0969 17.4478 34.0079 17.4175C33.917 17.3871 33.7924 17.3496 33.7318 17.3336C33.6695 17.3193 33.5911 17.2979 33.5573 17.289C33.5234 17.28 33.3827 17.2479 33.2455 17.2176C33.1084 17.189 32.9 17.1533 32.7824 17.139C32.6649 17.1248 32.4885 17.1033 32.3906 17.0909C32.2926 17.0801 32.0165 17.0712 31.7761 17.0712C31.4697 17.0694 31.2702 17.0784 31.1081 17.0998C30.9799 17.1176 30.841 17.1355 30.7964 17.139C30.7519 17.1444 30.6397 17.1658 30.5471 17.1854C30.4545 17.2051 30.2977 17.2408 30.1997 17.264C30.1018 17.289 29.9611 17.3247 29.888 17.3443C29.815 17.3657 29.7384 17.3889 29.7188 17.3996C29.6992 17.4085 29.6387 17.4317 29.5852 17.4496C29.5318 17.4692 29.3947 17.5192 29.2824 17.5638C29.1702 17.6067 29.0313 17.6638 28.9761 17.6905C28.9191 17.7155 28.8692 17.7369 28.8639 17.7369C28.8585 17.7369 28.7926 17.7655 28.7178 17.8012C28.6412 17.8351 28.3794 17.9636 28.1336 18.085C27.8896 18.2063 27.5921 18.3598 27.4746 18.4259C27.357 18.4901 27.1486 18.6079 27.0114 18.6864C26.8743 18.765 26.7104 18.8613 26.6463 18.9006C26.5822 18.9417 26.47 19.0095 26.3969 19.0523C26.3239 19.0969 26.2064 19.1683 26.1387 19.2147C26.071 19.2593 25.9855 19.3129 25.9517 19.3361C25.9178 19.3575 25.8537 19.3986 25.8109 19.4253C25.7682 19.4539 25.6952 19.5003 25.6489 19.5306C25.6025 19.561 25.5295 19.6109 25.4868 19.6431C25.444 19.6752 25.2802 19.7894 25.1234 19.8965C24.9667 20.0054 24.6995 20.1946 24.5303 20.3195C24.3593 20.4462 24.0583 20.6747 23.8623 20.8281C23.6646 20.9816 23.4598 21.1423 23.4064 21.1851C23.3529 21.2279 23.2728 21.294 23.2265 21.3332C23.1819 21.3725 23.0234 21.5064 22.8774 21.6295C22.7313 21.7544 22.5799 21.8829 22.5407 21.9151C22.5033 21.949 22.3662 22.0686 22.2379 22.1828C22.1115 22.297 21.8265 22.5522 21.6056 22.7503C21.3847 22.9484 21.1959 23.1073 21.187 23.1037C21.1746 23.1001 21.1674 22.0846 21.1603 17.148L21.212 17.1069C21.2405 17.0855 21.3028 17.0373 21.3509 17.0016C21.3972 16.9641 21.5522 16.8481 21.6947 16.7428C21.8372 16.6393 21.985 16.5304 22.0242 16.5019C22.0634 16.4733 22.1756 16.393 22.2735 16.3252C22.3715 16.2574 22.4641 16.1913 22.4784 16.1788C22.4926 16.1664 22.5941 16.0985 22.701 16.0271C22.8079 15.9558 22.9076 15.8986 22.9201 15.8986C22.9308 15.8986 23.0198 15.9433 23.116 15.9986C23.2104 16.0539 23.3814 16.1449 23.4936 16.202C23.6059 16.2592 23.8107 16.352 23.9478 16.4109C24.085 16.4698 24.3344 16.5644 24.5 16.6179C24.6656 16.6732 24.9346 16.75 25.0967 16.7892C25.2588 16.8285 25.5153 16.8803 25.6667 16.9052C25.8181 16.9302 26.0585 16.9606 26.201 16.9713C26.3435 16.9838 26.6552 16.9945 26.8957 16.9945C27.1361 16.9945 27.4354 16.9838 27.5636 16.9731C27.6919 16.9606 27.9074 16.9338 28.0445 16.9142C28.1817 16.8945 28.3936 16.8553 28.5165 16.8267C28.6394 16.7999 28.855 16.7428 28.9975 16.7018C29.1399 16.6607 29.359 16.5893 29.4873 16.5412C29.6155 16.4947 29.8221 16.4109 29.9504 16.3555C30.0786 16.2984 30.3031 16.1878 30.4491 16.1092C30.5969 16.0289 30.7483 15.9433 30.7875 15.9201C30.8267 15.8951 30.971 15.8005 31.1081 15.7095C31.2453 15.6184 31.4501 15.4685 31.5641 15.3775C31.6799 15.2865 31.8509 15.1419 31.9471 15.058C32.045 14.9723 32.2 14.8242 32.2926 14.7261C32.3852 14.6297 32.5473 14.4494 32.6506 14.328C32.7539 14.2049 32.9107 14.005 32.9997 13.8819C33.0888 13.7587 33.2295 13.5481 33.315 13.4125C33.3987 13.2786 33.5003 13.1037 33.5394 13.027C33.5786 12.9484 33.6196 12.8824 33.6321 12.877C33.6445 12.8717 33.6677 12.8717 33.6819 12.8753Z" fill="white"/>
</svg>
