<svg width="30" height="30" viewBox="0 0 30 30" fill="none" xmlns="http://www.w3.org/2000/svg">
<path d="M29.8562 20.2474L26.4464 8.53811C25.7182 6.03334 24.1317 3.83257 21.9392 2.28609C19.7467 0.739608 17.0743 -0.0637229 14.3473 0.00395104C11.6202 0.071625 8.99534 1.00642 6.89032 2.65955C4.7853 4.31267 3.32113 6.58914 2.73085 9.12664L0.0934602 20.4349C-0.0341564 20.9827 -0.0310437 21.5509 0.102569 22.0974C0.236182 22.6439 0.496884 23.1549 0.865443 23.5927C1.234 24.0304 1.70101 24.3837 2.23202 24.6265C2.76303 24.8694 3.34448 24.9955 3.93348 24.9956H8.66399C8.965 26.408 9.76921 27.6777 10.9404 28.5897C12.1116 29.5018 13.5776 30 15.0902 30C16.6029 30 18.0689 29.5018 19.2401 28.5897C20.4113 27.6777 21.2155 26.408 21.5165 24.9956H26.0674C26.6734 24.9954 27.2712 24.8617 27.8141 24.6051C28.357 24.3485 28.8304 23.9758 29.1972 23.5162C29.5641 23.0566 29.8146 22.5225 29.9291 21.9555C30.0436 21.3885 30.0178 20.8039 29.8562 20.2474ZM15.0902 27.4947C14.2794 27.4915 13.4894 27.2497 12.8283 26.8023C12.1673 26.355 11.6674 25.724 11.3971 24.9956H18.7834C18.5131 25.724 18.0132 26.355 17.3522 26.8023C16.6911 27.2497 15.9011 27.4915 15.0902 27.4947ZM27.11 22.003C26.9876 22.1576 26.829 22.2827 26.6468 22.3684C26.4647 22.4541 26.264 22.498 26.0608 22.4966H3.93348C3.7371 22.4965 3.54323 22.4545 3.36619 22.3735C3.18915 22.2926 3.03345 22.1748 2.91059 22.0288C2.78773 21.8828 2.70084 21.7124 2.65634 21.5302C2.61184 21.348 2.61086 21.1585 2.65347 20.9759L5.29086 9.66768C5.75559 7.6762 6.9057 5.88987 8.55836 4.59267C10.211 3.29547 12.2714 2.56184 14.4119 2.50841C16.5525 2.45499 18.6503 3.08483 20.372 4.29781C22.0937 5.51079 23.3404 7.23729 23.9139 9.20286L27.3237 20.9122C27.3794 21.0973 27.3891 21.2923 27.352 21.4816C27.3149 21.671 27.232 21.8495 27.11 22.003Z" fill="white"/>
</svg>
