<svg width="23" height="23" viewBox="0 0 23 23" fill="none" xmlns="http://www.w3.org/2000/svg">
<path d="M18.1418 9.10815C18.1418 11.0739 17.5012 12.8897 16.4221 14.363L21.8649 19.7891C22.4023 20.3245 22.4023 21.1938 21.8649 21.7292C21.3275 22.2645 20.4548 22.2645 19.9174 21.7292L14.4745 16.303C12.9955 17.3823 11.1727 18.0161 9.1993 18.0161C4.25945 18.0161 0.256836 14.0289 0.256836 9.10815C0.256836 4.18736 4.25945 0.200195 9.1993 0.200195C14.1392 0.200195 18.1418 4.18736 18.1418 9.10815ZM9.1993 15.2752C10.0123 15.2752 10.8174 15.1157 11.5685 14.8058C12.3196 14.4958 13.0021 14.0416 13.577 13.4689C14.1518 12.8962 14.6079 12.2164 14.919 11.4682C15.2301 10.72 15.3902 9.91802 15.3902 9.10815C15.3902 8.29828 15.2301 7.49634 14.919 6.74812C14.6079 5.9999 14.1518 5.32005 13.577 4.74739C13.0021 4.17473 12.3196 3.72047 11.5685 3.41054C10.8174 3.10062 10.0123 2.9411 9.1993 2.9411C8.3863 2.9411 7.58125 3.10062 6.83013 3.41054C6.07901 3.72047 5.39653 4.17473 4.82165 4.74739C4.24677 5.32005 3.79074 5.9999 3.47962 6.74812C3.1685 7.49634 3.00836 8.29828 3.00836 9.10815C3.00836 9.91802 3.1685 10.72 3.47962 11.4682C3.79074 12.2164 4.24677 12.8962 4.82165 13.4689C5.39653 14.0416 6.07901 14.4958 6.83013 14.8058C7.58125 15.1157 8.3863 15.2752 9.1993 15.2752Z" fill="#01183E"/>
</svg>
